<svg xmlns="http://www.w3.org/2000/svg" viewBox="0 0 24 24" width="24" height="24" role="img" aria-label="ResearchGate">
  <path fill="#00CCBB" d="M19.586 0c-.818 0-1.508.19-2.073.565-.563.377-.97.936-1.213 1.68a3.19 3.19 0 0 0-.112.437 8.36 8.36 0 0 0-.078.53 9 9 0 0 0-.05.727c-.01.282-.013.621-.013 1.016a31.12 31.12 0 0 0 .014 1.017c.01.281.027.524.05.727.023.203.049.38.078.53.029.15.066.296.112.437.243.744.65 1.303 1.213 1.68.565.376 1.255.564 2.073.564.81 0 1.514-.196 2.108-.588.594-.39 1.008-.943 1.243-1.656.047-.142.085-.288.114-.438a8.3 8.3 0 0 0 .076-.53c.024-.205.04-.448.05-.728.01-.28.013-.62.013-1.016 0-.394-.003-.733-.013-1.015a9.08 9.08 0 0 0-.05-.727 8.09 8.09 0 0 0-.076-.53 3.32 3.32 0 0 0-.114-.438c-.235-.713-.65-1.266-1.243-1.656C21.1.196 20.396 0 19.586 0zm-.014 1.34c.36 0 .67.082.93.244.26.162.46.394.602.696.05.108.094.23.13.367.037.137.067.298.09.482.024.184.04.398.05.64.01.244.014.524.014.84 0 .315-.004.595-.014.838-.01.243-.026.456-.05.64a3.74 3.74 0 0 1-.09.483 1.49 1.49 0 0 1-.13.367c-.142.302-.342.534-.601.696-.26.162-.57.243-.93.243-.36 0-.67-.081-.93-.243a1.82 1.82 0 0 1-.602-.696 1.49 1.49 0 0 1-.13-.367 3.74 3.74 0 0 1-.09-.483 8.93 8.93 0 0 1-.05-.64 21.5 21.5 0 0 1-.013-.839c0-.315.004-.595.014-.839.01-.242.026-.456.05-.64.022-.184.052-.345.089-.482.036-.137.08-.259.13-.367.142-.302.342-.534.601-.696.26-.162.57-.243.93-.243zM8.103 6.037c-1.06 0-1.96.17-2.7.51-.74.34-1.346.81-1.815 1.41-.47.6-.815 1.314-1.035 2.145-.22.83-.33 1.74-.33 2.73v.002c0 1.006.106 1.927.318 2.764.212.836.55 1.555 1.014 2.156.464.6 1.064 1.07 1.8 1.41.736.34 1.626.51 2.67.51.585 0 1.116-.057 1.592-.17a5.91 5.91 0 0 0 1.272-.45 5.21 5.21 0 0 0 1.012-.654c.29-.243.54-.49.748-.74l.092-.114v-3.103h-3.5v1.207h2.092v1.43a3.07 3.07 0 0 1-.97.628c-.4.166-.875.25-1.422.25-.6 0-1.117-.116-1.55-.346a3.05 3.05 0 0 1-1.087-.96 4.41 4.41 0 0 1-.64-1.457 7.6 7.6 0 0 1-.21-1.84v-.002c0-.66.07-1.27.21-1.83.14-.56.354-1.044.64-1.45.286-.408.648-.726 1.087-.956.44-.23.957-.345 1.55-.345.39 0 .738.04 1.043.12.305.082.574.196.806.343.232.147.43.32.596.518.166.198.302.413.408.646l.057.125 1.32-.55-.05-.12a4.2 4.2 0 0 0-.602-.99 3.997 3.997 0 0 0-.91-.81 4.515 4.515 0 0 0-1.224-.546c-.46-.133-.98-.2-1.56-.2z"/>
</svg>
